<svg width="391" height="294" viewBox="0 0 391 294" fill="none" xmlns="http://www.w3.org/2000/svg">
<path d="M203.438 223.479H133.271L50.9167 128.667V223.479H3.8147e-06V0H50.9167V91.2917L127.583 0H189.354L99.4167 105.917L203.438 223.479Z" fill="black"/>
<path d="M264.099 133.813V223.479H213.182V0H264.099V89.125H336.161V0H387.078V223.479H336.161V133.813H264.099Z" fill="black"/>
<path d="M31.3398 252.125C34.0586 255.084 35.4232 258.719 35.4232 263.021C35.4232 267.329 34.0586 270.974 31.3398 273.959C28.6315 276.948 25.1784 278.438 20.9857 278.438C17.1211 278.438 13.9492 277.23 11.4648 274.813V292.313H1.42317V248.521H11.3398V251.792H11.4648C13.9492 249.042 17.1211 247.667 20.9857 247.667C25.1784 247.667 28.6315 249.157 31.3398 252.125ZM22.819 267.959C24.1211 266.667 24.7773 265.021 24.7773 263.021C24.7773 261.021 24.1523 259.391 22.9023 258.125C21.6523 256.865 20.0065 256.23 17.9648 256.23C16.0065 256.23 14.3919 256.875 13.1315 258.167C11.8659 259.448 11.2357 261.063 11.2357 263.021C11.2357 265.021 11.8815 266.667 13.1732 267.959C14.4753 269.24 16.0742 269.875 17.9648 269.875C19.8919 269.875 21.5117 269.24 22.819 267.959Z" fill="black"/>
<path d="M40.1195 277.584V228.855H50.1611V251.584H50.2653C52.8747 248.974 55.6507 247.667 58.5986 247.667C60.0257 247.667 61.4528 247.855 62.8695 248.23C64.2861 248.605 65.6455 249.188 66.9528 249.98C68.2549 250.771 69.3122 251.896 70.1195 253.355C70.9372 254.813 71.3486 256.511 71.3486 258.438V277.584H61.307V261.146C61.307 259.636 60.8278 258.313 59.8695 257.188C58.9111 256.053 57.6507 255.48 56.0986 255.48C54.583 255.48 53.2132 256.073 51.9945 257.25C50.7705 258.417 50.1611 259.719 50.1611 261.146V277.584H40.1195Z" fill="black"/>
<path d="M80.3193 274.125C77.0954 271.25 75.486 267.573 75.486 263.084C75.486 258.584 77.1631 254.891 80.5276 252C83.887 249.115 88.0381 247.667 92.986 247.667C97.861 247.667 101.965 249.125 105.298 252.042C108.642 254.948 110.319 258.625 110.319 263.084C110.319 267.542 108.684 271.219 105.423 274.105C102.158 276.995 98.012 278.438 92.986 278.438C87.7776 278.438 83.5537 277 80.3193 274.125ZM88.0901 258.167C86.7829 259.448 86.1318 261.084 86.1318 263.084C86.1318 265.084 86.7464 266.719 87.986 267.98C89.236 269.245 90.8818 269.875 92.9235 269.875C94.8922 269.875 96.512 269.24 97.7776 267.959C99.0381 266.667 99.6735 265.042 99.6735 263.084C99.6735 261.084 99.0172 259.448 97.7151 258.167C96.4079 256.875 94.8089 256.23 92.9235 256.23C91.0068 256.23 89.3922 256.875 88.0901 258.167Z" fill="black"/>
<path d="M116.728 248.521V237.688H126.748V248.521H132.873V256.167H126.748V265.396C126.748 268.079 127.504 269.417 129.019 269.417C129.394 269.417 129.79 269.349 130.207 269.209C130.623 269.058 130.941 268.907 131.165 268.751L131.519 268.521L133.998 276.626C131.842 277.834 129.394 278.438 126.644 278.438C124.754 278.438 123.129 278.11 121.769 277.459C120.405 276.792 119.373 275.907 118.665 274.792C117.967 273.667 117.467 272.495 117.165 271.271C116.873 270.037 116.728 268.724 116.728 267.334V256.167H112.54V248.521H116.728Z" fill="black"/>
<path d="M140.148 274.125C136.924 271.25 135.315 267.573 135.315 263.084C135.315 258.584 136.992 254.891 140.357 252C143.716 249.115 147.867 247.667 152.815 247.667C157.69 247.667 161.794 249.125 165.128 252.042C168.471 254.948 170.148 258.625 170.148 263.084C170.148 267.542 168.513 271.219 165.253 274.105C161.987 276.995 157.841 278.438 152.815 278.438C147.607 278.438 143.383 277 140.148 274.125ZM147.919 258.167C146.612 259.448 145.961 261.084 145.961 263.084C145.961 265.084 146.576 266.719 147.815 267.98C149.065 269.245 150.711 269.875 152.753 269.875C154.721 269.875 156.341 269.24 157.607 267.959C158.867 266.667 159.503 265.042 159.503 263.084C159.503 261.084 158.846 259.448 157.544 258.167C156.237 256.875 154.638 256.23 152.753 256.23C150.836 256.23 149.221 256.875 147.919 258.167Z" fill="black"/>
<path d="M173.557 284.73L181.765 280.709C183.275 283.193 185.9 284.438 189.64 284.438C191.374 284.438 192.984 283.881 194.473 282.771C195.973 281.657 196.723 279.948 196.723 277.646V275.48C194.942 277.454 191.77 278.438 187.202 278.438C183.005 278.438 179.546 276.959 176.827 274C174.119 271.032 172.765 267.391 172.765 263.084C172.765 258.782 174.119 255.136 176.827 252.146C179.546 249.162 183.005 247.667 187.202 247.667C190.937 247.667 194.057 248.823 196.557 251.125H196.723V248.521H206.765V278.375C206.765 283.094 205.192 286.74 202.057 289.313C198.916 291.881 194.775 293.167 189.64 293.167C181.333 293.167 175.973 290.355 173.557 284.73ZM185.369 258.167C184.062 259.448 183.411 261.084 183.411 263.084C183.411 265.084 184.025 266.719 185.265 267.98C186.515 269.245 188.161 269.875 190.202 269.875C192.171 269.875 193.791 269.24 195.057 267.959C196.317 266.667 196.952 265.042 196.952 263.084C196.952 261.084 196.296 259.448 194.994 258.167C193.687 256.875 192.088 256.23 190.202 256.23C188.286 256.23 186.671 256.875 185.369 258.167Z" fill="black"/>
<path d="M213.545 277.584V248.521H223.586V252.709H223.69C223.774 252.558 223.899 252.37 224.065 252.146C224.232 251.912 224.597 251.516 225.17 250.959C225.737 250.391 226.341 249.886 226.982 249.438C227.618 248.98 228.446 248.573 229.461 248.209C230.487 247.849 231.529 247.667 232.586 247.667C233.68 247.667 234.758 247.823 235.815 248.125C236.868 248.417 237.649 248.719 238.149 249.021L238.94 249.48L234.732 257.98C233.493 256.928 231.758 256.396 229.524 256.396C228.315 256.396 227.274 256.662 226.399 257.188C225.534 257.719 224.925 258.365 224.565 259.125C224.201 259.875 223.946 260.516 223.795 261.042C223.654 261.573 223.586 261.99 223.586 262.292V277.584H213.545Z" fill="black"/>
<path d="M243.739 274C241.03 271.032 239.676 267.391 239.676 263.084C239.676 258.782 241.03 255.136 243.739 252.146C246.457 249.162 249.916 247.667 254.114 247.667C257.973 247.667 261.145 248.875 263.634 251.292V248.521H273.676V277.584H263.759V274.292H263.634C261.145 277.058 257.973 278.438 254.114 278.438C249.916 278.438 246.457 276.959 243.739 274ZM252.28 258.167C250.973 259.448 250.322 261.084 250.322 263.084C250.322 265.084 250.937 266.719 252.176 267.98C253.426 269.245 255.072 269.875 257.114 269.875C259.082 269.875 260.702 269.24 261.968 267.959C263.228 266.667 263.864 265.042 263.864 263.084C263.864 261.084 263.207 259.448 261.905 258.167C260.598 256.875 258.999 256.23 257.114 256.23C255.197 256.23 253.582 256.875 252.28 258.167Z" fill="black"/>
<path d="M310.372 252.125C313.091 255.084 314.456 258.719 314.456 263.021C314.456 267.329 313.091 270.974 310.372 273.959C307.664 276.948 304.211 278.438 300.018 278.438C296.154 278.438 292.982 277.23 290.497 274.813V292.313H280.456V248.521H290.372V251.792H290.497C292.982 249.042 296.154 247.667 300.018 247.667C304.211 247.667 307.664 249.157 310.372 252.125ZM301.852 267.959C303.154 266.667 303.81 265.021 303.81 263.021C303.81 261.021 303.185 259.391 301.935 258.125C300.685 256.865 299.039 256.23 296.997 256.23C295.039 256.23 293.425 256.875 292.164 258.167C290.898 259.448 290.268 261.063 290.268 263.021C290.268 265.021 290.914 266.667 292.206 267.959C293.508 269.24 295.107 269.875 296.997 269.875C298.925 269.875 300.544 269.24 301.852 267.959Z" fill="black"/>
<path d="M319.152 277.584V228.855H329.194V251.584H329.298C331.907 248.974 334.683 247.667 337.631 247.667C339.058 247.667 340.485 247.855 341.902 248.23C343.319 248.605 344.678 249.188 345.985 249.98C347.287 250.771 348.345 251.896 349.152 253.355C349.97 254.813 350.381 256.511 350.381 258.438V277.584H340.34V261.146C340.34 259.636 339.86 258.313 338.902 257.188C337.944 256.053 336.683 255.48 335.131 255.48C333.616 255.48 332.246 256.073 331.027 257.25C329.803 258.417 329.194 259.719 329.194 261.146V277.584H319.152Z" fill="black"/>
<path d="M378.644 248.521H390.206L367.373 292.313H355.81L365.852 273.042L352.081 248.521H363.623L371.727 263.417L378.644 248.521Z" fill="black"/>
</svg>
