<svg width="490" height="487" viewBox="0 0 490 487" fill="none" xmlns="http://www.w3.org/2000/svg">
<path d="M169.732 221.724C160.414 206.573 158.456 183.115 163.357 166.016C176.101 117.151 232.466 90.7553 280.513 103.464C298.643 108.354 315.299 118.12 330.018 130.828C344.716 143.537 356.976 160.156 366.284 178.229C375.107 196.807 380.997 216.839 383.93 237.849C396.185 340.474 338.357 424.521 286.388 452.38C324.628 447.495 369.232 420.604 395.7 394.719C429.518 361 452.07 316.031 457.461 265.703C462.367 215.375 449.612 166.995 423.643 126.922C397.174 87.3438 357.961 56.0678 309.424 40.4272C261.388 25.2761 210.904 27.724 166.299 45.3178C122.185 62.9063 83.4609 95.1616 58.4609 139.146C33.4661 183.12 26.1067 232.964 33.9504 279.886C40.815 318.474 57.9661 355.609 85.4192 385.917C101.107 334.615 143.263 270.589 192.279 247.136C206.008 240.781 220.706 236.87 235.898 238.833C267.268 242.245 287.378 258.37 296.685 280.37C307.95 306.271 304.034 339.469 285.904 369.776C252.081 425.495 171.2 470.932 106.992 446.021C119.247 385.917 147.674 333.609 195.216 295.521C155.029 342.917 146.2 386.386 143.747 421.578C193.753 420.104 239.825 391.271 263.351 347.307C271.69 331.667 274.633 315.057 271.2 300.896C268.742 290.146 262.378 281.339 252.565 275.479C231.982 263.261 209.924 269.136 190.805 281.339C128.06 321.891 83.4609 413.271 93.263 486.573C81.0077 463.13 80.5234 441.636 80.0286 423.552C79.0494 423.047 75.6171 419.636 74.638 418.662C36.4036 382 12.3879 334.615 3.56503 284.771C-5.75268 231.011 3.07024 174.318 31.4973 123.99C59.9296 73.6563 104.539 37.0053 155.023 16.974C206.008 -3.06762 263.836 -5.99991 318.732 11.599C374.133 29.1876 419.221 64.8647 449.128 110.302C479.029 155.75 493.726 211.464 487.851 268.63C481.976 326.276 455.992 377.604 417.263 416.214C398.648 434.766 377.57 449.938 354.029 461.656C303.065 487.068 205.513 489.011 147.674 470.927C171.69 477.292 307.466 451.375 345.706 321.417C359.419 274.005 356.976 229.047 338.357 191.912C330.992 177.255 321.195 164.063 309.424 153.797C298.643 144.021 285.904 136.698 272.174 133.271C240.805 124.969 201.596 141.578 192.768 174.318C186.883 195.823 197.185 215.854 208.945 228.563C185.904 231.011 158.456 250.063 146.2 267.172C144.726 251.537 155.513 229.542 169.732 221.724ZM233.94 166.5C242.273 166.5 249.138 173.833 249.138 182.136C249.138 190.938 242.273 197.776 233.94 197.776C225.117 197.776 218.253 190.938 218.253 182.136C218.253 173.833 225.117 166.5 233.94 166.5Z" fill="black"/>
</svg>
