<svg xmlns="http://www.w3.org/2000/svg" xmlns:xlink="http://www.w3.org/1999/xlink" width="500" zoomAndPan="magnify" viewBox="0 0 375 374.999991" height="500" preserveAspectRatio="xMidYMid meet" version="1.0"><defs><g/><clipPath id="2727430898"><rect x="0" width="366" y="0" height="177"/></clipPath></defs><g transform="matrix(1, 0, 0, 1, 0, 82)"><g clip-path="url(#2727430898)"><g fill="#000000" fill-opacity="1"><g transform="translate(0.0000045, 144.458099)"><g><path d="M 88.71875 28.15625 C 88.71875 28.351562 88.5 28.425781 88.0625 28.375 C 87.625 28.332031 86.675781 28.019531 85.21875 27.4375 C 81.90625 26.269531 79.617188 25.101562 78.359375 23.9375 C 76.410156 22.082031 74.804688 19.40625 73.546875 15.90625 L 72.671875 13.140625 C 72.378906 12.359375 72.234375 11.722656 72.234375 11.234375 C 72.234375 11.140625 72.179688 10.945312 72.078125 10.65625 C 71.984375 10.363281 71.890625 10.117188 71.796875 9.921875 C 71.398438 8.753906 71.007812 6.859375 70.625 4.234375 C 70.238281 1.609375 69.972656 -1.160156 69.828125 -4.078125 C 69.679688 -7.003906 69.65625 -9.390625 69.75 -11.234375 L 69.890625 -14.296875 L 70.046875 -16.78125 L 70.1875 -18.09375 L 70.328125 -19.546875 L 70.625 -21.015625 C 70.820312 -21.691406 70.867188 -22.273438 70.765625 -22.765625 C 70.765625 -23.347656 70.863281 -23.929688 71.0625 -24.515625 C 71.257812 -25.003906 71.40625 -25.539062 71.5 -26.125 C 71.59375 -26.707031 71.691406 -27.4375 71.796875 -28.3125 L 72.078125 -29.765625 L 72.671875 -32.390625 L 73.40625 -35.75 L 73.984375 -38.078125 C 74.078125 -38.472656 74.296875 -39.273438 74.640625 -40.484375 C 74.984375 -41.703125 75.300781 -42.894531 75.59375 -44.0625 C 75.882812 -45.226562 76.078125 -45.863281 76.171875 -45.96875 L 77.1875 -49.328125 L 80.40625 -61 L 80.84375 -62.453125 C 81.03125 -62.648438 81.125 -63.039062 81.125 -63.625 L 80.546875 -63.03125 C 80.347656 -62.738281 79.765625 -62.109375 78.796875 -61.140625 L 75.734375 -57.34375 L 71.203125 -51.796875 L 63.03125 -41.296875 L 59.25 -36.765625 L 56.90625 -33.703125 L 52.671875 -28.3125 L 51.359375 -26.5625 L 46.25 -19.546875 L 44.796875 -17.515625 C 44.703125 -17.316406 44.3125 -16.753906 43.625 -15.828125 C 42.945312 -14.910156 42.269531 -13.914062 41.59375 -12.84375 L 37.5 -6.859375 C 36.71875 -5.691406 35.988281 -4.523438 35.3125 -3.359375 C 34.632812 -2.191406 34.242188 -1.410156 34.140625 -1.015625 C 34.140625 -0.628906 34.238281 -0.4375 34.4375 -0.4375 C 34.726562 -0.34375 34.726562 -0.0976562 34.4375 0.296875 C 34.050781 0.773438 33.613281 0.796875 33.125 0.359375 C 32.632812 -0.078125 32.441406 -0.679688 32.546875 -1.453125 C 32.640625 -2.816406 34 -5.492188 36.625 -9.484375 C 38.1875 -11.816406 39.113281 -13.273438 39.40625 -13.859375 C 39.59375 -14.253906 39.738281 -14.5 39.84375 -14.59375 C 40.132812 -14.882812 40.375 -15.175781 40.5625 -15.46875 L 41 -16.34375 L 41.734375 -17.21875 L 42.90625 -18.828125 C 43.382812 -19.597656 43.890625 -20.375 44.421875 -21.15625 C 44.960938 -21.9375 46.160156 -23.59375 48.015625 -26.125 L 50.921875 -30.0625 L 52.234375 -31.8125 L 55.453125 -35.890625 C 55.941406 -36.578125 56.453125 -37.234375 56.984375 -37.859375 C 57.515625 -38.492188 58.070312 -39.15625 58.65625 -39.84375 L 68.578125 -52.390625 L 70.046875 -53.984375 L 74.125 -59.09375 L 77.1875 -62.890625 L 78.9375 -64.9375 C 79.425781 -65.425781 79.863281 -65.910156 80.25 -66.390625 C 80.644531 -66.878906 80.9375 -67.171875 81.125 -67.265625 L 81.421875 -67.5625 C 81.421875 -67.757812 81.445312 -67.90625 81.5 -68 C 81.550781 -68.09375 81.578125 -68.140625 81.578125 -68.140625 L 81.71875 -68.140625 C 81.914062 -68.429688 82.015625 -68.578125 82.015625 -68.578125 C 82.203125 -68.578125 82.539062 -68.921875 83.03125 -69.609375 C 83.707031 -70.484375 84.363281 -71.257812 85 -71.9375 C 85.632812 -72.625 86 -73.015625 86.09375 -73.109375 L 87.40625 -74.5625 L 89.453125 -77.046875 L 96.453125 -84.921875 L 102.296875 -91.0625 L 104.921875 -94.125 L 107.109375 -96.59375 L 108.859375 -98.796875 L 109.59375 -99.8125 C 109.78125 -100.101562 110.019531 -100.394531 110.3125 -100.6875 C 110.601562 -100.6875 110.894531 -101.023438 111.1875 -101.703125 L 112.359375 -103.171875 C 112.554688 -103.359375 112.65625 -103.597656 112.65625 -103.890625 C 112.84375 -103.992188 113.035156 -104.238281 113.234375 -104.625 C 112.554688 -104.53125 111.898438 -104.382812 111.265625 -104.1875 C 110.628906 -103.988281 110.019531 -103.796875 109.4375 -103.609375 C 109.34375 -103.703125 108.6875 -103.695312 107.46875 -103.59375 C 106.25 -103.5 104.863281 -103.378906 103.3125 -103.234375 C 101.757812 -103.085938 100.445312 -102.921875 99.375 -102.734375 L 96.453125 -102.4375 L 91.5 -101.859375 C 90.132812 -101.753906 88.988281 -101.65625 88.0625 -101.5625 C 87.132812 -101.46875 86.625 -101.367188 86.53125 -101.265625 L 85.359375 -100.984375 C 84.003906 -100.878906 82.617188 -100.726562 81.203125 -100.53125 C 79.796875 -100.34375 78.992188 -100.203125 78.796875 -100.109375 C 78.703125 -100.109375 78.457031 -100.082031 78.0625 -100.03125 C 77.675781 -99.976562 77.289062 -99.953125 76.90625 -99.953125 C 76.125 -99.953125 75.539062 -99.859375 75.15625 -99.671875 C 75.050781 -99.566406 74.582031 -99.46875 73.75 -99.375 C 72.925781 -99.28125 71.984375 -99.132812 70.921875 -98.9375 L 65.234375 -98.203125 L 62.15625 -97.625 C 61.476562 -97.519531 60.359375 -97.347656 58.796875 -97.109375 C 57.242188 -96.867188 56.222656 -96.648438 55.734375 -96.453125 L 52.390625 -95.71875 L 51.515625 -95.578125 C 51.316406 -95.484375 50.898438 -95.382812 50.265625 -95.28125 C 49.640625 -95.1875 48.5 -94.945312 46.84375 -94.5625 L 42.75 -93.53125 C 41.6875 -93.34375 41.054688 -93.148438 40.859375 -92.953125 C 40.765625 -92.859375 40.570312 -92.785156 40.28125 -92.734375 C 39.988281 -92.679688 39.597656 -92.5625 39.109375 -92.375 L 37.359375 -91.9375 L 34.578125 -91.0625 L 31.515625 -90.03125 C 30.835938 -89.832031 30.132812 -89.5625 29.40625 -89.21875 C 28.675781 -88.882812 28.066406 -88.570312 27.578125 -88.28125 C 27.484375 -88.28125 27.382812 -88.253906 27.28125 -88.203125 C 27.1875 -88.160156 27.039062 -88.140625 26.84375 -88.140625 C 26.75 -88.140625 26.285156 -87.894531 25.453125 -87.40625 C 24.628906 -86.914062 23.78125 -86.453125 22.90625 -86.015625 C 22.03125 -85.578125 21.546875 -85.3125 21.453125 -85.21875 L 19.84375 -83.765625 C 18.582031 -82.890625 17.515625 -81.863281 16.640625 -80.6875 C 16.242188 -80.207031 16 -79.457031 15.90625 -78.4375 C 15.8125 -77.414062 15.8125 -76.515625 15.90625 -75.734375 L 16.203125 -74.125 C 16.390625 -72.957031 16.726562 -71.835938 17.21875 -70.765625 C 17.601562 -70.085938 17.75 -69.625 17.65625 -69.375 C 17.5625 -69.132812 17.269531 -69.210938 16.78125 -69.609375 C 16.394531 -69.992188 16.078125 -70.523438 15.828125 -71.203125 C 15.585938 -71.890625 15.367188 -72.570312 15.171875 -73.25 C 15.171875 -74.03125 15.078125 -74.519531 14.890625 -74.71875 C 14.691406 -74.8125 14.59375 -75.296875 14.59375 -76.171875 C 14.59375 -77.046875 14.664062 -77.941406 14.8125 -78.859375 C 14.957031 -79.785156 15.128906 -80.347656 15.328125 -80.546875 C 15.421875 -80.742188 15.515625 -80.9375 15.609375 -81.125 C 15.710938 -81.320312 15.8125 -81.519531 15.90625 -81.71875 C 16.101562 -82.207031 16.296875 -82.546875 16.484375 -82.734375 C 16.878906 -82.929688 17.269531 -83.222656 17.65625 -83.609375 C 18.039062 -84.003906 18.550781 -84.46875 19.1875 -85 C 19.820312 -85.53125 20.1875 -85.796875 20.28125 -85.796875 L 21.75 -86.671875 C 22.332031 -87.160156 23.109375 -87.671875 24.078125 -88.203125 C 25.046875 -88.742188 25.628906 -89.015625 25.828125 -89.015625 L 26.84375 -89.453125 C 28.40625 -90.234375 29.378906 -90.625 29.765625 -90.625 C 29.960938 -90.625 30.109375 -90.644531 30.203125 -90.6875 C 30.304688 -90.738281 30.40625 -90.765625 30.5 -90.765625 L 32.109375 -91.34375 L 35.171875 -92.375 C 35.648438 -92.5625 36.179688 -92.726562 36.765625 -92.875 C 37.347656 -93.019531 37.835938 -93.144531 38.234375 -93.25 C 39.109375 -93.4375 39.789062 -93.628906 40.28125 -93.828125 C 40.46875 -93.921875 41.046875 -94.085938 42.015625 -94.328125 C 42.992188 -94.578125 44.113281 -94.847656 45.375 -95.140625 L 50.34375 -96.453125 L 51.796875 -96.59375 L 55.15625 -97.328125 L 61.71875 -98.5 L 86.234375 -102.140625 C 86.722656 -102.242188 87.160156 -102.316406 87.546875 -102.359375 C 87.941406 -102.410156 88.1875 -102.484375 88.28125 -102.578125 C 88.476562 -102.578125 88.796875 -102.601562 89.234375 -102.65625 C 89.671875 -102.707031 90.082031 -102.734375 90.46875 -102.734375 L 93.96875 -103.171875 L 101.421875 -104.1875 L 111.1875 -105.203125 C 111.675781 -105.203125 112.3125 -105.398438 113.09375 -105.796875 C 114.351562 -106.378906 115.273438 -106.71875 115.859375 -106.8125 L 116.734375 -106.953125 C 116.835938 -107.054688 117.179688 -107.109375 117.765625 -107.109375 C 118.148438 -107.203125 118.582031 -107.222656 119.0625 -107.171875 C 119.550781 -107.128906 119.847656 -107.007812 119.953125 -106.8125 C 120.140625 -106.71875 120.113281 -106.523438 119.875 -106.234375 C 119.632812 -105.941406 119.269531 -105.695312 118.78125 -105.5 C 118.394531 -105.40625 117.738281 -105.066406 116.8125 -104.484375 C 115.882812 -103.898438 115.421875 -103.507812 115.421875 -103.3125 C 115.421875 -103.3125 115.320312 -103.1875 115.125 -102.9375 C 114.9375 -102.695312 114.742188 -102.484375 114.546875 -102.296875 L 105.203125 -91.0625 L 91.9375 -76.171875 L 90.328125 -74.421875 C 89.929688 -73.929688 89.5625 -73.515625 89.21875 -73.171875 C 88.882812 -72.835938 88.71875 -72.617188 88.71875 -72.515625 C 88.71875 -72.515625 88.644531 -72.414062 88.5 -72.21875 C 88.351562 -72.03125 88.179688 -71.835938 87.984375 -71.640625 C 87.890625 -71.546875 87.671875 -71.300781 87.328125 -70.90625 C 86.992188 -70.519531 86.582031 -70.085938 86.09375 -69.609375 C 86.289062 -69.609375 86.4375 -69.628906 86.53125 -69.671875 C 86.625 -69.722656 86.722656 -69.75 86.828125 -69.75 C 87.015625 -69.75 87.207031 -69.722656 87.40625 -69.671875 C 87.601562 -69.628906 87.75 -69.65625 87.84375 -69.75 L 88.421875 -70.046875 L 89.015625 -70.046875 L 95.4375 -72.078125 L 102.875 -74.71875 L 107.546875 -76.46875 L 108.421875 -76.90625 L 108.859375 -76.90625 L 109.59375 -77.34375 C 109.976562 -77.4375 110.460938 -77.675781 111.046875 -78.0625 L 112.359375 -78.65625 L 115.125 -79.96875 L 116.015625 -80.40625 L 117.90625 -81.421875 C 118.289062 -81.617188 118.875 -81.957031 119.65625 -82.4375 C 120.4375 -82.925781 121.210938 -83.414062 121.984375 -83.90625 L 126.515625 -86.828125 C 127.390625 -87.410156 128.484375 -88.160156 129.796875 -89.078125 C 131.109375 -90.003906 132.375 -90.878906 133.59375 -91.703125 C 134.8125 -92.535156 135.566406 -93.097656 135.859375 -93.390625 L 137.890625 -94.84375 C 138.472656 -95.332031 139.300781 -95.960938 140.375 -96.734375 C 141.445312 -97.515625 142.320312 -98.203125 143 -98.796875 L 147.234375 -102.140625 C 150.148438 -104.285156 152.191406 -106.039062 153.359375 -107.40625 L 155.703125 -109.734375 C 156.285156 -110.515625 157.132812 -111.363281 158.25 -112.28125 C 159.375 -113.207031 160.03125 -113.671875 160.21875 -113.671875 C 160.414062 -113.671875 160.515625 -113.476562 160.515625 -113.09375 C 160.609375 -112.695312 160.316406 -112.160156 159.640625 -111.484375 L 158.171875 -110.3125 L 157.296875 -109.4375 L 155.265625 -107.25 L 152.921875 -104.921875 L 151.03125 -103.453125 L 147.53125 -100.546875 L 143.4375 -97.46875 C 143.25 -97.175781 142.8125 -96.835938 142.125 -96.453125 L 140.953125 -95.578125 C 140.765625 -95.285156 139.40625 -94.265625 136.875 -92.515625 C 134.34375 -90.765625 131.519531 -88.867188 128.40625 -86.828125 C 125.6875 -84.972656 123.644531 -83.609375 122.28125 -82.734375 C 120.914062 -81.859375 119.117188 -80.835938 116.890625 -79.671875 C 116.003906 -79.285156 114.90625 -78.773438 113.59375 -78.140625 C 112.28125 -77.503906 111.53125 -77.140625 111.34375 -77.046875 C 110.945312 -76.847656 110.335938 -76.578125 109.515625 -76.234375 C 108.691406 -75.898438 107.835938 -75.539062 106.953125 -75.15625 L 105.0625 -74.421875 L 98.796875 -72.234375 L 92.375 -69.890625 L 89.453125 -68.875 C 89.054688 -68.78125 88.710938 -68.660156 88.421875 -68.515625 C 88.128906 -68.367188 87.835938 -68.195312 87.546875 -68 L 86.828125 -67.5625 C 86.722656 -67.46875 86.625 -67.347656 86.53125 -67.203125 C 86.4375 -67.054688 86.335938 -66.882812 86.234375 -66.6875 L 83.328125 -61.4375 C 82.742188 -60.5625 82.453125 -59.976562 82.453125 -59.6875 L 82.015625 -58.375 C 81.421875 -56.8125 80.859375 -55.175781 80.328125 -53.46875 C 79.796875 -51.769531 79.476562 -50.726562 79.375 -50.34375 L 78.359375 -46.546875 L 76.03125 -38.375 L 74.71875 -33.265625 L 74.421875 -32.25 L 73.984375 -30.0625 L 73.40625 -27.4375 C 73.113281 -25.976562 72.769531 -24.003906 72.375 -21.515625 C 71.988281 -19.035156 71.695312 -17.164062 71.5 -15.90625 C 71.300781 -13.664062 71.203125 -10.988281 71.203125 -7.875 C 71.203125 -4.757812 71.320312 -1.816406 71.5625 0.953125 C 71.8125 3.722656 72.128906 5.644531 72.515625 6.71875 C 72.515625 6.90625 72.5625 7.171875 72.65625 7.515625 C 72.757812 7.859375 72.8125 8.175781 72.8125 8.46875 C 73.101562 10.40625 73.6875 12.660156 74.5625 15.234375 C 75.4375 17.816406 76.363281 19.789062 77.34375 21.15625 C 78.601562 23.394531 80.597656 24.953125 83.328125 25.828125 C 84.492188 26.210938 85.679688 26.671875 86.890625 27.203125 C 88.109375 27.742188 88.71875 28.0625 88.71875 28.15625 Z M 88.71875 28.15625 "/></g></g></g><g fill="#000000" fill-opacity="1"><g transform="translate(94.847334, 144.458099)"><g><path d="M -1.453125 -39.84375 C -2.617188 -39.738281 -3.347656 -39.710938 -3.640625 -39.765625 C -3.929688 -39.816406 -4.128906 -40.082031 -4.234375 -40.5625 C -4.429688 -41.050781 -4.234375 -41.78125 -3.640625 -42.75 C -2.867188 -43.914062 -1.753906 -45.082031 -0.296875 -46.25 C 1.160156 -47.425781 2.617188 -48.253906 4.078125 -48.734375 C 6.421875 -49.609375 7.738281 -49.660156 8.03125 -48.890625 C 8.125 -48.492188 7.050781 -47.519531 4.8125 -45.96875 C 3.550781 -45.09375 2.503906 -44.4375 1.671875 -44 C 0.847656 -43.5625 0.046875 -43.242188 -0.734375 -43.046875 C -1.609375 -42.847656 -2.140625 -42.507812 -2.328125 -42.03125 C -2.722656 -41.632812 -2.773438 -41.390625 -2.484375 -41.296875 C -1.609375 -41.003906 2.960938 -42.65625 11.234375 -46.25 L 11.53125 -46.40625 L 11.96875 -46.40625 L 12.109375 -46.25 C 12.492188 -46.0625 12.539062 -45.820312 12.25 -45.53125 L 10.359375 -44.65625 L 3.796875 -41.734375 C 2.523438 -41.054688 1.523438 -40.617188 0.796875 -40.421875 C 0.0664062 -40.222656 -0.679688 -40.03125 -1.453125 -39.84375 Z M -0.296875 -44.65625 C -0.390625 -44.550781 -0.21875 -44.570312 0.21875 -44.71875 C 0.65625 -44.863281 1.265625 -45.132812 2.046875 -45.53125 C 2.722656 -45.914062 3.472656 -46.375 4.296875 -46.90625 C 5.128906 -47.445312 5.59375 -47.765625 5.6875 -47.859375 C 5.6875 -48.054688 5.414062 -48.03125 4.875 -47.78125 C 4.34375 -47.539062 3.835938 -47.320312 3.359375 -47.125 C 2.867188 -47.03125 2.160156 -46.640625 1.234375 -45.953125 C 0.316406 -45.273438 -0.191406 -44.84375 -0.296875 -44.65625 Z M -0.296875 -44.65625 "/></g></g></g><g fill="#000000" fill-opacity="1"><g transform="translate(106.520852, 144.458099)"><g><path d="M -0.296875 -37.5 C -1.753906 -37.300781 -2.382812 -38.273438 -2.1875 -40.421875 C -1.988281 -41.878906 -1.304688 -43.820312 -0.140625 -46.25 C -0.046875 -46.351562 0.046875 -46.644531 0.140625 -47.125 C 0.242188 -47.613281 0.34375 -47.910156 0.4375 -48.015625 C 0.726562 -48.785156 1.019531 -49.171875 1.3125 -49.171875 C 1.507812 -49.273438 1.65625 -49.328125 1.75 -49.328125 C 1.84375 -49.328125 1.890625 -49.328125 1.890625 -49.328125 L 2.046875 -48.890625 C 2.234375 -48.492188 2.207031 -47.953125 1.96875 -47.265625 C 1.726562 -46.585938 1.410156 -45.910156 1.015625 -45.234375 C 0.535156 -44.265625 0.125 -43.125 -0.21875 -41.8125 C -0.5625 -40.5 -0.679688 -39.644531 -0.578125 -39.25 C -0.484375 -38.863281 0.242188 -39.351562 1.609375 -40.71875 C 2.285156 -41.394531 2.769531 -41.953125 3.0625 -42.390625 C 3.351562 -42.828125 3.691406 -43.484375 4.078125 -44.359375 C 4.671875 -45.429688 4.96875 -46.160156 4.96875 -46.546875 C 4.863281 -46.742188 5.054688 -46.890625 5.546875 -46.984375 C 6.035156 -47.078125 6.765625 -46.929688 7.734375 -46.546875 C 9.097656 -45.960938 10.484375 -45.5 11.890625 -45.15625 C 13.304688 -44.820312 15.035156 -44.601562 17.078125 -44.5 C 20.085938 -44.5 22.394531 -44.617188 24 -44.859375 C 25.601562 -45.109375 26.601562 -45.28125 27 -45.375 C 27.769531 -45.570312 28.226562 -45.742188 28.375 -45.890625 C 28.519531 -46.035156 28.738281 -45.914062 29.03125 -45.53125 C 29.03125 -45.132812 28.15625 -44.695312 26.40625 -44.21875 L 24.8125 -43.921875 C 24.519531 -43.921875 23.835938 -43.847656 22.765625 -43.703125 C 21.691406 -43.554688 20.910156 -43.484375 20.421875 -43.484375 L 17.65625 -43.484375 C 16 -43.484375 14.34375 -43.628906 12.6875 -43.921875 L 10.65625 -44.21875 L 8.171875 -44.796875 C 7.972656 -44.796875 7.800781 -44.867188 7.65625 -45.015625 C 7.507812 -45.160156 7.289062 -45.1875 7 -45.09375 C 6.320312 -45.09375 5.882812 -44.847656 5.6875 -44.359375 C 5.394531 -43.679688 4.90625 -42.878906 4.21875 -41.953125 C 3.539062 -41.023438 3.109375 -40.46875 2.921875 -40.28125 C 2.523438 -39.59375 1.960938 -38.957031 1.234375 -38.375 C 0.503906 -37.789062 -0.00390625 -37.5 -0.296875 -37.5 Z M -0.296875 -37.5 "/></g></g></g><g fill="#000000" fill-opacity="1"><g transform="translate(135.558742, 144.458099)"><g><path d="M 6.125 -50.203125 C 5.832031 -50.097656 5.539062 -50.191406 5.25 -50.484375 C 4.957031 -50.773438 4.910156 -50.972656 5.109375 -51.078125 C 5.304688 -51.265625 5.40625 -51.554688 5.40625 -51.953125 C 5.59375 -52.921875 6.03125 -53.160156 6.71875 -52.671875 C 7.007812 -52.378906 7.15625 -52.140625 7.15625 -51.953125 C 7.25 -51.660156 7.171875 -51.316406 6.921875 -50.921875 C 6.679688 -50.535156 6.414062 -50.296875 6.125 -50.203125 Z M -2.1875 -39.6875 C -3.644531 -39.59375 -4.375 -39.984375 -4.375 -40.859375 L -4.375 -41.296875 C -4.375 -42.554688 -3.109375 -44.257812 -0.578125 -46.40625 C 0.679688 -47.28125 1.503906 -47.617188 1.890625 -47.421875 C 2.578125 -47.128906 2.09375 -46.300781 0.4375 -44.9375 L -2.046875 -42.90625 C -2.429688 -42.414062 -2.625 -41.832031 -2.625 -41.15625 C -2.332031 -41.050781 -1.96875 -41.046875 -1.53125 -41.140625 C -1.09375 -41.242188 -0.875 -41.296875 -0.875 -41.296875 C 0.195312 -41.492188 1.800781 -42.03125 3.9375 -42.90625 C 6.082031 -43.78125 8.757812 -44.894531 11.96875 -46.25 L 12.25 -46.40625 L 12.546875 -46.40625 L 12.84375 -46.25 C 13.332031 -46.0625 13.28125 -45.769531 12.6875 -45.375 L 10.9375 -44.65625 L 4.53125 -41.734375 C 3.351562 -41.242188 2.132812 -40.804688 0.875 -40.421875 C -0.382812 -40.035156 -1.40625 -39.789062 -2.1875 -39.6875 Z M -2.1875 -39.6875 "/></g></g></g><g fill="#000000" fill-opacity="1"><g transform="translate(147.815925, 144.458099)"><g><path d="M 8.609375 -39.109375 C 6.859375 -38.910156 5.59375 -39.15625 4.8125 -39.84375 C 4.519531 -40.03125 4.320312 -40.460938 4.21875 -41.140625 C 4.125 -41.828125 4.175781 -42.363281 4.375 -42.75 L 4.671875 -43.1875 L 4.671875 -43.34375 L 4.96875 -43.921875 L 4.8125 -43.921875 C 4.132812 -43.535156 2.921875 -42.878906 1.171875 -41.953125 C -0.578125 -41.023438 -1.796875 -40.320312 -2.484375 -39.84375 C -3.160156 -39.644531 -3.5 -39.546875 -3.5 -39.546875 C -3.789062 -39.546875 -4.007812 -39.664062 -4.15625 -39.90625 C -4.300781 -40.15625 -4.328125 -40.375 -4.234375 -40.5625 L -4.234375 -41 C -3.359375 -41.875 -2.675781 -42.894531 -2.1875 -44.0625 L -1.171875 -45.375 C -0.296875 -46.644531 0.429688 -46.9375 1.015625 -46.25 C 1.304688 -45.863281 1.304688 -45.378906 1.015625 -44.796875 L 0 -43.1875 L 4.671875 -45.234375 C 4.960938 -45.429688 5.273438 -45.601562 5.609375 -45.75 C 5.953125 -45.894531 6.175781 -46.015625 6.28125 -46.109375 C 7.34375 -46.890625 7.921875 -46.890625 8.015625 -46.109375 C 8.117188 -45.328125 7.878906 -44.597656 7.296875 -43.921875 C 6.328125 -42.953125 5.9375 -42.175781 6.125 -41.59375 C 6.125 -39.9375 9.628906 -40.175781 16.640625 -42.3125 C 17.410156 -42.507812 18.453125 -42.875 19.765625 -43.40625 C 21.085938 -43.945312 22.28125 -44.410156 23.34375 -44.796875 C 24.90625 -45.472656 26 -45.910156 26.625 -46.109375 C 27.257812 -46.304688 27.625 -46.351562 27.71875 -46.25 C 28.207031 -46.0625 28.304688 -45.867188 28.015625 -45.671875 C 27.722656 -45.472656 27.1875 -45.226562 26.40625 -44.9375 C 25.820312 -44.75 25.410156 -44.601562 25.171875 -44.5 C 24.929688 -44.40625 24.519531 -44.210938 23.9375 -43.921875 L 23.0625 -43.484375 L 21.453125 -42.75 L 19.40625 -41.875 C 19.40625 -41.875 18.457031 -41.554688 16.5625 -40.921875 C 14.664062 -40.296875 13.035156 -39.835938 11.671875 -39.546875 Z M 8.609375 -39.109375 "/></g></g></g><g fill="#000000" fill-opacity="1"><g transform="translate(175.248704, 144.458099)"><g><path d="M 39.6875 12.546875 C 39.5 12.347656 39.351562 11.910156 39.25 11.234375 C 39.15625 10.554688 39.15625 9.875 39.25 9.1875 C 39.445312 7.539062 40.421875 5.644531 42.171875 3.5 C 42.460938 3.113281 42.726562 2.75 42.96875 2.40625 C 43.21875 2.0625 43.390625 1.796875 43.484375 1.609375 C 43.679688 1.410156 43.851562 1.1875 44 0.9375 C 44.144531 0.695312 44.3125 0.484375 44.5 0.296875 L 47.28125 -3.203125 L 50.484375 -7.15625 L 51.65625 -8.75 L 52.390625 -9.625 L 55.59375 -13.71875 L 58.65625 -17.65625 L 62.453125 -22.328125 L 63.46875 -23.640625 L 64.0625 -24.375 L 65.078125 -25.53125 L 66.546875 -26.84375 L 69.453125 -30.5 L 71.0625 -32.6875 L 73.109375 -35.015625 C 73.109375 -35.410156 73.835938 -36.335938 75.296875 -37.796875 L 77.625 -40.5625 L 78.796875 -42.03125 L 80.40625 -43.921875 L 80.984375 -44.65625 L 84.203125 -48.296875 L 95.140625 -60.40625 L 78.5 -59.6875 L 75.875 -59.25 L 65.375 -47.28125 L 61.71875 -43.1875 L 57.9375 -38.8125 L 55.453125 -35.890625 L 49.609375 -28.890625 L 45.53125 -23.640625 L 44.359375 -22.03125 C 44.160156 -21.738281 43.914062 -21.394531 43.625 -21 C 43.332031 -20.613281 43.09375 -20.328125 42.90625 -20.140625 C 42.707031 -19.941406 42.265625 -19.378906 41.578125 -18.453125 C 40.898438 -17.535156 40.175781 -16.539062 39.40625 -15.46875 L 35.015625 -9.625 C 34.242188 -8.457031 33.515625 -7.316406 32.828125 -6.203125 C 32.148438 -5.085938 31.765625 -4.332031 31.671875 -3.9375 C 31.566406 -3.644531 31.613281 -3.398438 31.8125 -3.203125 C 32.101562 -3.109375 32.101562 -2.914062 31.8125 -2.625 C 31.425781 -2.132812 31.007812 -2.109375 30.5625 -2.546875 C 30.125 -2.984375 29.957031 -3.59375 30.0625 -4.375 C 30.15625 -5.15625 30.566406 -6.128906 31.296875 -7.296875 C 32.023438 -8.460938 33.070312 -10.113281 34.4375 -12.25 C 35.21875 -13.320312 35.875 -14.296875 36.40625 -15.171875 C 36.9375 -16.046875 37.203125 -16.535156 37.203125 -16.640625 C 37.398438 -17.023438 37.597656 -17.21875 37.796875 -17.21875 L 38.515625 -18.09375 L 38.96875 -18.96875 L 39.6875 -19.84375 L 41 -21.453125 C 41.488281 -22.234375 42.023438 -22.960938 42.609375 -23.640625 C 43.191406 -24.316406 44.457031 -25.96875 46.40625 -28.59375 L 49.328125 -32.390625 C 50.003906 -33.265625 50.898438 -34.382812 52.015625 -35.75 C 53.140625 -37.113281 54.234375 -38.398438 55.296875 -39.609375 C 56.367188 -40.828125 57.101562 -41.632812 57.5 -42.03125 C 57.976562 -42.320312 58.21875 -42.707031 58.21875 -43.1875 C 58.414062 -43.382812 58.515625 -43.484375 58.515625 -43.484375 C 58.710938 -43.484375 58.976562 -43.675781 59.3125 -44.0625 C 59.65625 -44.457031 60.3125 -45.1875 61.28125 -46.25 L 62.453125 -47.578125 C 62.835938 -47.960938 63.394531 -48.59375 64.125 -49.46875 C 64.863281 -50.34375 65.546875 -51.191406 66.171875 -52.015625 C 66.804688 -52.847656 67.171875 -53.3125 67.265625 -53.40625 L 69.171875 -55.734375 L 71.9375 -58.953125 L 60.84375 -57.9375 C 55.300781 -57.25 50.34375 -56.613281 45.96875 -56.03125 C 41.59375 -55.445312 39.015625 -55.109375 38.234375 -55.015625 C 37.835938 -55.015625 36.765625 -54.867188 35.015625 -54.578125 C 33.265625 -54.285156 31.804688 -54.085938 30.640625 -53.984375 C 30.347656 -53.890625 29.785156 -53.769531 28.953125 -53.625 C 28.128906 -53.476562 27.332031 -53.304688 26.5625 -53.109375 C 25 -52.722656 23.832031 -52.53125 23.0625 -52.53125 C 22.375 -52.238281 21.785156 -52.140625 21.296875 -52.234375 C 20.816406 -52.335938 20.578125 -52.4375 20.578125 -52.53125 C 20.472656 -53.113281 21.367188 -53.523438 23.265625 -53.765625 C 25.171875 -54.015625 28.894531 -54.578125 34.4375 -55.453125 L 38.078125 -56.03125 L 48.734375 -57.5 C 49.515625 -57.59375 51.117188 -57.785156 53.546875 -58.078125 C 55.984375 -58.367188 58.175781 -58.660156 60.125 -58.953125 C 59.25 -58.859375 59.148438 -58.859375 59.828125 -58.953125 C 60.503906 -59.046875 61.617188 -59.164062 63.171875 -59.3125 C 64.734375 -59.457031 66.4375 -59.628906 68.28125 -59.828125 C 70.132812 -60.023438 71.789062 -60.21875 73.25 -60.40625 L 73.40625 -60.703125 L 78.5 -66.25 C 78.988281 -66.738281 79.453125 -67.222656 79.890625 -67.703125 C 80.328125 -68.191406 80.59375 -68.484375 80.6875 -68.578125 L 81.421875 -69.453125 C 81.421875 -69.742188 81.519531 -69.890625 81.71875 -69.890625 C 81.71875 -69.890625 81.835938 -69.988281 82.078125 -70.1875 C 82.328125 -70.382812 82.546875 -70.628906 82.734375 -70.921875 L 85.796875 -74.28125 L 89.296875 -78.0625 L 90.625 -79.375 L 96.75 -85.65625 L 99.953125 -88.859375 C 100.347656 -89.253906 100.445312 -89.546875 100.25 -89.734375 C 100.25 -89.835938 100.296875 -89.890625 100.390625 -89.890625 C 100.585938 -89.691406 100.976562 -89.9375 101.5625 -90.625 L 105.5 -94.703125 L 107.6875 -97.1875 L 109.59375 -99.078125 L 110.3125 -100.109375 C 110.707031 -100.691406 110.953125 -100.984375 111.046875 -100.984375 C 111.335938 -100.984375 111.628906 -101.320312 111.921875 -102 L 113.09375 -103.453125 C 113.28125 -103.648438 113.398438 -103.796875 113.453125 -103.890625 C 113.503906 -103.992188 113.53125 -104.046875 113.53125 -104.046875 C 113.625 -104.234375 113.71875 -104.398438 113.8125 -104.546875 C 113.914062 -104.691406 113.96875 -104.816406 113.96875 -104.921875 C 113.28125 -104.816406 112.644531 -104.664062 112.0625 -104.46875 C 111.476562 -104.28125 110.847656 -104.085938 110.171875 -103.890625 C 110.078125 -103.992188 109.421875 -104.046875 108.203125 -104.046875 C 106.984375 -104.046875 105.617188 -103.992188 104.109375 -103.890625 C 102.609375 -103.796875 101.320312 -103.648438 100.25 -103.453125 L 97.1875 -103.3125 L 92.21875 -102.875 C 89.394531 -102.675781 87.742188 -102.484375 87.265625 -102.296875 L 86.09375 -102.140625 C 84.726562 -102.046875 83.335938 -101.925781 81.921875 -101.78125 C 80.515625 -101.632812 79.71875 -101.5625 79.53125 -101.5625 C 79.425781 -101.46875 79.179688 -101.421875 78.796875 -101.421875 C 78.410156 -101.421875 78.019531 -101.421875 77.625 -101.421875 C 76.75 -101.421875 76.117188 -101.320312 75.734375 -101.125 C 75.640625 -101.125 75.203125 -101.070312 74.421875 -100.96875 C 73.640625 -100.875 72.710938 -100.78125 71.640625 -100.6875 L 65.953125 -99.953125 L 62.890625 -99.671875 L 56.328125 -98.640625 L 52.09375 -97.90625 C 51.894531 -97.8125 51.476562 -97.710938 50.84375 -97.609375 C 50.21875 -97.515625 49.078125 -97.273438 47.421875 -96.890625 L 43.1875 -96.15625 C 42.800781 -96.0625 42.410156 -95.960938 42.015625 -95.859375 C 41.628906 -95.765625 41.390625 -95.671875 41.296875 -95.578125 C 41.296875 -95.578125 41.125 -95.523438 40.78125 -95.421875 C 40.445312 -95.328125 40.035156 -95.234375 39.546875 -95.140625 L 37.796875 -94.703125 L 37.0625 -94.5625 L 35.015625 -93.96875 L 31.953125 -92.953125 C 31.179688 -92.753906 30.453125 -92.507812 29.765625 -92.21875 C 29.085938 -91.925781 28.503906 -91.6875 28.015625 -91.5 C 27.628906 -91.300781 27.382812 -91.203125 27.28125 -91.203125 C 27.1875 -91.203125 26.675781 -90.984375 25.75 -90.546875 C 24.832031 -90.109375 23.957031 -89.671875 23.125 -89.234375 C 22.300781 -88.796875 21.84375 -88.523438 21.75 -88.421875 L 19.984375 -87.109375 C 19.210938 -86.628906 18.582031 -86.191406 18.09375 -85.796875 C 17.601562 -85.410156 17.117188 -84.828125 16.640625 -84.046875 C 16.347656 -83.660156 16.101562 -82.957031 15.90625 -81.9375 C 15.707031 -80.914062 15.660156 -80.015625 15.765625 -79.234375 L 16.046875 -77.625 C 16.242188 -76.363281 16.585938 -75.195312 17.078125 -74.125 C 17.367188 -73.445312 17.460938 -72.984375 17.359375 -72.734375 C 17.265625 -72.492188 16.972656 -72.617188 16.484375 -73.109375 C 15.710938 -73.890625 15.226562 -75.101562 15.03125 -76.75 C 15.03125 -77.53125 14.929688 -78.019531 14.734375 -78.21875 C 14.640625 -78.3125 14.59375 -78.796875 14.59375 -79.671875 C 14.59375 -80.546875 14.664062 -81.445312 14.8125 -82.375 C 14.957031 -83.300781 15.128906 -83.859375 15.328125 -84.046875 C 15.421875 -84.242188 15.515625 -84.4375 15.609375 -84.625 C 15.710938 -84.820312 15.8125 -85.019531 15.90625 -85.21875 L 16.640625 -86.234375 C 16.828125 -86.234375 17.210938 -86.523438 17.796875 -87.109375 C 18.191406 -87.503906 18.726562 -87.921875 19.40625 -88.359375 C 20.082031 -88.796875 20.472656 -89.015625 20.578125 -89.015625 L 22.03125 -90.03125 C 22.613281 -90.425781 23.390625 -90.863281 24.359375 -91.34375 C 25.335938 -91.832031 25.925781 -92.078125 26.125 -92.078125 L 27.28125 -92.515625 C 28.84375 -93.296875 29.816406 -93.6875 30.203125 -93.6875 C 30.597656 -93.6875 30.84375 -93.734375 30.9375 -93.828125 L 32.546875 -94.40625 L 35.609375 -95.28125 C 36.085938 -95.476562 36.644531 -95.625 37.28125 -95.71875 C 37.914062 -95.820312 38.425781 -95.921875 38.8125 -96.015625 C 39.207031 -96.109375 39.597656 -96.179688 39.984375 -96.234375 C 40.367188 -96.285156 40.613281 -96.359375 40.71875 -96.453125 C 40.90625 -96.546875 41.484375 -96.691406 42.453125 -96.890625 C 43.429688 -97.085938 44.550781 -97.332031 45.8125 -97.625 L 50.921875 -98.796875 L 52.390625 -98.9375 L 55.734375 -99.515625 L 62.3125 -100.390625 L 67.125 -101.125 L 86.96875 -103.3125 C 87.9375 -103.3125 88.617188 -103.410156 89.015625 -103.609375 C 89.203125 -103.703125 89.515625 -103.75 89.953125 -103.75 C 90.398438 -103.75 90.863281 -103.75 91.34375 -103.75 C 92.320312 -103.75 93.488281 -103.847656 94.84375 -104.046875 L 102.296875 -104.765625 L 111.921875 -105.5 C 112.503906 -105.5 113.1875 -105.691406 113.96875 -106.078125 C 114.738281 -106.367188 115.296875 -106.5625 115.640625 -106.65625 C 115.984375 -106.757812 116.347656 -106.859375 116.734375 -106.953125 C 116.929688 -106.953125 117.101562 -106.976562 117.25 -107.03125 C 117.394531 -107.082031 117.515625 -107.109375 117.609375 -107.109375 C 117.710938 -107.203125 118.054688 -107.25 118.640625 -107.25 C 119.804688 -107.445312 120.535156 -107.300781 120.828125 -106.8125 C 121.015625 -106.71875 120.988281 -106.523438 120.75 -106.234375 C 120.507812 -105.941406 120.144531 -105.695312 119.65625 -105.5 C 119.269531 -105.40625 118.613281 -105.085938 117.6875 -104.546875 C 116.757812 -104.015625 116.296875 -103.703125 116.296875 -103.609375 C 116.296875 -103.503906 115.957031 -103.113281 115.28125 -102.4375 C 114.695312 -101.851562 114.40625 -101.460938 114.40625 -101.265625 C 114.40625 -101.078125 114.304688 -100.984375 114.109375 -100.984375 C 113.910156 -100.984375 113.71875 -100.738281 113.53125 -100.25 C 113.332031 -99.664062 112.988281 -99.226562 112.5 -98.9375 L 111.921875 -98.34375 C 111.921875 -98.25 111.675781 -97.957031 111.1875 -97.46875 C 110.707031 -96.988281 110.125 -96.359375 109.4375 -95.578125 L 102.296875 -88.28125 C 101.023438 -87.019531 100.390625 -86.289062 100.390625 -86.09375 C 100.390625 -86.09375 100.363281 -86.039062 100.3125 -85.9375 C 100.269531 -85.84375 100.203125 -85.796875 100.109375 -85.796875 C 99.910156 -85.609375 99.375 -85.078125 98.5 -84.203125 C 97.625 -83.328125 96.675781 -82.351562 95.65625 -81.28125 C 94.632812 -80.207031 93.734375 -79.28125 92.953125 -78.5 C 92.171875 -77.726562 91.78125 -77.289062 91.78125 -77.1875 L 90.1875 -75.4375 C 89.789062 -75.050781 89.421875 -74.660156 89.078125 -74.265625 C 88.742188 -73.878906 88.578125 -73.6875 88.578125 -73.6875 C 88.578125 -73.5 88.285156 -73.207031 87.703125 -72.8125 L 84.203125 -69.015625 C 83.515625 -68.140625 82.851562 -67.363281 82.21875 -66.6875 C 81.59375 -66.007812 81.179688 -65.570312 80.984375 -65.375 L 80.109375 -64.5 C 79.523438 -63.71875 78.914062 -63.007812 78.28125 -62.375 C 77.65625 -61.75 77.195312 -61.238281 76.90625 -60.84375 L 96.453125 -61.875 C 96.835938 -62.257812 97.296875 -62.71875 97.828125 -63.25 C 98.367188 -63.789062 98.539062 -64.007812 98.34375 -63.90625 C 98.738281 -64.300781 98.9375 -64.546875 98.9375 -64.640625 C 98.9375 -64.835938 99.035156 -64.9375 99.234375 -64.9375 C 99.234375 -64.9375 99.425781 -65.101562 99.8125 -65.4375 C 100.195312 -65.78125 100.585938 -66.195312 100.984375 -66.6875 L 103.015625 -68.875 C 103.703125 -69.550781 104.382812 -70.300781 105.0625 -71.125 C 105.738281 -71.957031 106.03125 -72.421875 105.9375 -72.515625 C 105.9375 -72.617188 105.984375 -72.671875 106.078125 -72.671875 C 106.179688 -72.566406 106.617188 -72.851562 107.390625 -73.53125 C 108.171875 -74.21875 108.660156 -74.757812 108.859375 -75.15625 L 109.875 -76.171875 C 110.269531 -76.460938 110.613281 -76.828125 110.90625 -77.265625 C 111.195312 -77.703125 111.828125 -78.503906 112.796875 -79.671875 C 112.992188 -79.867188 113.1875 -80.085938 113.375 -80.328125 C 113.570312 -80.566406 113.71875 -80.738281 113.8125 -80.84375 C 114.207031 -81.03125 114.988281 -81.78125 116.15625 -83.09375 C 117.320312 -84.414062 118.488281 -85.753906 119.65625 -87.109375 L 121.703125 -89.453125 L 123.015625 -90.765625 L 126.078125 -94.125 C 126.566406 -94.707031 127.148438 -95.410156 127.828125 -96.234375 C 128.503906 -97.054688 129.039062 -97.757812 129.4375 -98.34375 C 130.5 -99.90625 131.175781 -100.6875 131.46875 -100.6875 C 131.757812 -100.78125 132.050781 -100.726562 132.34375 -100.53125 C 132.632812 -100.34375 132.78125 -100.148438 132.78125 -99.953125 C 132.59375 -98.878906 130.503906 -96.207031 126.515625 -91.9375 C 124.367188 -89.695312 122.710938 -87.894531 121.546875 -86.53125 C 120.378906 -85.164062 119.410156 -84 118.640625 -83.03125 C 117.660156 -81.957031 117 -81.25 116.65625 -80.90625 C 116.320312 -80.570312 115.863281 -80.0625 115.28125 -79.375 L 112.9375 -76.75 C 112.550781 -76.269531 112.039062 -75.6875 111.40625 -75 C 110.78125 -74.320312 110.222656 -73.789062 109.734375 -73.40625 L 108.28125 -71.9375 C 108.28125 -71.84375 107.9375 -71.453125 107.25 -70.765625 L 104.765625 -68.140625 L 103.171875 -66.25 L 99.375 -62.015625 L 100.546875 -62.015625 C 101.515625 -62.109375 102.53125 -62.179688 103.59375 -62.234375 C 104.664062 -62.285156 105.398438 -62.210938 105.796875 -62.015625 L 109.875 -62.3125 L 122.71875 -62.15625 C 122.8125 -62.15625 123.269531 -62.203125 124.09375 -62.296875 C 124.925781 -62.398438 125.832031 -62.40625 126.8125 -62.3125 L 140.8125 -61.578125 C 140.8125 -61.578125 140.984375 -61.550781 141.328125 -61.5 C 141.671875 -61.457031 142.035156 -61.4375 142.421875 -61.4375 L 148.546875 -61 C 151.078125 -61 152.34375 -60.5625 152.34375 -59.6875 C 152.539062 -59.195312 152.296875 -58.804688 151.609375 -58.515625 L 150.453125 -58.21875 C 149.671875 -58.125 149.28125 -58.320312 149.28125 -58.8125 C 149.082031 -59.195312 148.644531 -59.390625 147.96875 -59.390625 C 145.925781 -59.585938 143.878906 -59.832031 141.828125 -60.125 C 139.785156 -60.414062 137.351562 -60.679688 134.53125 -60.921875 C 131.71875 -61.160156 128.117188 -61.28125 123.734375 -61.28125 C 123.347656 -61.1875 122.957031 -61.140625 122.5625 -61.140625 C 122.175781 -61.140625 121.9375 -61.140625 121.84375 -61.140625 C 121.84375 -61.140625 121.015625 -61.113281 119.359375 -61.0625 C 117.710938 -61.019531 116.007812 -61 114.25 -61 C 112.5 -61 111.382812 -61.046875 110.90625 -61.140625 L 105.796875 -60.84375 C 105.503906 -61.039062 104.457031 -61.085938 102.65625 -60.984375 C 100.851562 -60.890625 99.269531 -60.75 97.90625 -60.5625 L 97.765625 -60.5625 C 97.472656 -60.457031 97.007812 -59.96875 96.375 -59.09375 C 95.75 -58.21875 95.484375 -57.734375 95.578125 -57.640625 C 95.484375 -57.640625 95.382812 -57.59375 95.28125 -57.5 C 95.09375 -57.394531 94.78125 -57.125 94.34375 -56.6875 C 93.90625 -56.25 92.957031 -55.203125 91.5 -53.546875 C 90.132812 -52.191406 89.453125 -51.367188 89.453125 -51.078125 C 89.546875 -50.972656 89.226562 -50.601562 88.5 -49.96875 C 87.769531 -49.34375 87.015625 -48.640625 86.234375 -47.859375 C 85.460938 -46.984375 84.46875 -45.835938 83.25 -44.421875 C 82.03125 -43.015625 80.546875 -41.242188 78.796875 -39.109375 L 75.4375 -35.171875 C 75.050781 -34.585938 74.6875 -34.078125 74.34375 -33.640625 C 74.007812 -33.203125 73.84375 -32.929688 73.84375 -32.828125 C 73.738281 -32.734375 73.613281 -32.5625 73.46875 -32.3125 C 73.320312 -32.070312 73.101562 -31.859375 72.8125 -31.671875 L 71.203125 -29.765625 L 69.75 -28.015625 L 66.390625 -23.78125 L 65.671875 -22.90625 L 65.671875 -23.0625 L 64.796875 -22.03125 L 63.1875 -19.984375 C 62.988281 -19.796875 62.28125 -18.972656 61.0625 -17.515625 C 59.851562 -16.054688 58.46875 -14.351562 56.90625 -12.40625 C 55.351562 -10.457031 53.796875 -8.460938 52.234375 -6.421875 L 49.765625 -3.5 C 49.078125 -2.625 48.316406 -1.675781 47.484375 -0.65625 C 46.660156 0.363281 45.570312 1.894531 44.21875 3.9375 L 42.75 5.6875 C 42.363281 6.175781 41.925781 7.050781 41.4375 8.3125 C 40.957031 9.582031 40.664062 10.601562 40.5625 11.375 C 40.46875 12.0625 40.367188 12.453125 40.265625 12.546875 C 40.171875 12.640625 39.976562 12.640625 39.6875 12.546875 Z M 39.6875 12.546875 "/></g></g></g><g fill="#000000" fill-opacity="1"><g transform="translate(272.138926, 144.458099)"><g><path d="M -3.0625 -39.546875 L -3.5 -40.28125 C -3.59375 -40.664062 -3.613281 -41.050781 -3.5625 -41.4375 C -3.519531 -41.832031 -3.453125 -42.175781 -3.359375 -42.46875 C -3.160156 -43.144531 -2.453125 -44.085938 -1.234375 -45.296875 C -0.0234375 -46.515625 0.820312 -47.421875 1.3125 -48.015625 C 1.800781 -48.398438 2.140625 -48.492188 2.328125 -48.296875 C 2.816406 -48.109375 2.671875 -47.523438 1.890625 -46.546875 C 1.210938 -45.765625 0.34375 -44.742188 -0.71875 -43.484375 C -1.789062 -42.222656 -2.28125 -41.445312 -2.1875 -41.15625 C -1.988281 -40.757812 -1.453125 -40.804688 -0.578125 -41.296875 C 0.296875 -41.785156 1.242188 -42.46875 2.265625 -43.34375 C 3.285156 -44.21875 4.132812 -45.039062 4.8125 -45.8125 L 5.109375 -46.25 L 5.984375 -47.125 L 6.28125 -47.578125 C 6.757812 -48.054688 7.195312 -48.25 7.59375 -48.15625 C 8.175781 -47.957031 8.148438 -47.441406 7.515625 -46.609375 C 6.878906 -45.785156 6.222656 -44.988281 5.546875 -44.21875 C 4.378906 -42.757812 3.988281 -41.738281 4.375 -41.15625 C 4.476562 -40.757812 4.769531 -40.632812 5.25 -40.78125 C 5.738281 -40.925781 5.984375 -41 5.984375 -41 C 7.054688 -41.195312 8.660156 -41.734375 10.796875 -42.609375 C 12.941406 -43.484375 15.617188 -44.601562 18.828125 -45.96875 L 19.109375 -46.109375 L 19.40625 -46.109375 L 19.703125 -45.96875 C 19.890625 -45.863281 19.957031 -45.738281 19.90625 -45.59375 C 19.863281 -45.445312 19.742188 -45.328125 19.546875 -45.234375 L 17.796875 -44.359375 L 11.375 -41.4375 C 10.019531 -40.851562 8.78125 -40.390625 7.65625 -40.046875 C 6.539062 -39.710938 5.984375 -39.546875 5.984375 -39.546875 L 5.546875 -39.546875 C 4.273438 -39.253906 3.492188 -39.398438 3.203125 -39.984375 C 2.910156 -40.566406 2.816406 -41.195312 2.921875 -41.875 L 2.921875 -42.46875 L 2.765625 -42.3125 L 1.75 -41.4375 C 1.363281 -41.144531 0.757812 -40.753906 -0.0625 -40.265625 C -0.894531 -39.785156 -1.601562 -39.546875 -2.1875 -39.546875 Z M -3.0625 -39.546875 "/></g></g></g><g fill="#000000" fill-opacity="1"><g transform="translate(291.546147, 144.458099)"><g><path d="M -48.734375 3.640625 C -49.898438 3.742188 -50.4375 3.210938 -50.34375 2.046875 L -50.203125 1.015625 C -49.710938 0.429688 -49.421875 -0.195312 -49.328125 -0.875 C -49.128906 -1.070312 -48.835938 -1.460938 -48.453125 -2.046875 L -48.296875 -2.046875 C -48.109375 -2.234375 -48.015625 -2.425781 -48.015625 -2.625 C -47.910156 -2.914062 -47.320312 -3.691406 -46.25 -4.953125 C -45.1875 -6.222656 -43.945312 -7.5625 -42.53125 -8.96875 C -41.125 -10.382812 -39.9375 -11.429688 -38.96875 -12.109375 C -37.988281 -12.890625 -36.9375 -13.691406 -35.8125 -14.515625 C -34.695312 -15.347656 -33.945312 -15.859375 -33.5625 -16.046875 L -31.375 -17.359375 C -30.101562 -18.234375 -29.226562 -18.769531 -28.75 -18.96875 C -28.164062 -19.164062 -27.875 -19.359375 -27.875 -19.546875 C -27.875 -19.546875 -27.847656 -19.570312 -27.796875 -19.625 C -27.742188 -19.675781 -27.671875 -19.703125 -27.578125 -19.703125 C -27.285156 -19.703125 -26.703125 -19.992188 -25.828125 -20.578125 C -25.148438 -20.960938 -23.984375 -21.546875 -22.328125 -22.328125 C -20.671875 -23.109375 -19.132812 -23.835938 -17.71875 -24.515625 C -16.3125 -25.191406 -15.5625 -25.484375 -15.46875 -25.390625 C -15.375 -25.390625 -15.226562 -25.4375 -15.03125 -25.53125 C -14.832031 -25.632812 -14.640625 -25.734375 -14.453125 -25.828125 C -14.253906 -26.023438 -13.984375 -26.171875 -13.640625 -26.265625 C -13.304688 -26.359375 -12.988281 -26.457031 -12.6875 -26.5625 C -12.207031 -26.75 -11.625 -27.0625 -10.9375 -27.5 C -10.257812 -27.9375 -9.4375 -28.835938 -8.46875 -30.203125 C -7.882812 -30.984375 -6.957031 -32.101562 -5.6875 -33.5625 C -4.425781 -35.019531 -3.160156 -36.523438 -1.890625 -38.078125 C -0.628906 -39.640625 0.410156 -40.929688 1.234375 -41.953125 C 2.066406 -42.972656 2.382812 -43.4375 2.1875 -43.34375 L -1.3125 -41.875 C -1.507812 -41.78125 -1.972656 -41.753906 -2.703125 -41.796875 C -3.429688 -41.847656 -3.890625 -41.925781 -4.078125 -42.03125 C -4.273438 -42.21875 -4.375 -42.53125 -4.375 -42.96875 C -4.375 -43.40625 -4.226562 -43.722656 -3.9375 -43.921875 L -3.359375 -44.5 C -3.160156 -44.601562 -3.007812 -44.65625 -2.90625 -44.65625 C -2.8125 -44.65625 -2.71875 -44.703125 -2.625 -44.796875 L -1.3125 -45.8125 C -0.820312 -46.101562 -0.140625 -46.492188 0.734375 -46.984375 C 1.609375 -47.472656 2.285156 -47.765625 2.765625 -47.859375 C 4.910156 -48.546875 5.984375 -48.207031 5.984375 -46.84375 C 5.984375 -46.644531 6.003906 -46.472656 6.046875 -46.328125 C 6.097656 -46.179688 6.125 -46.0625 6.125 -45.96875 C 6.125 -45.769531 5.882812 -45.332031 5.40625 -44.65625 L 3.796875 -42.171875 L 1.890625 -39.6875 C 1.597656 -39.394531 0.96875 -38.664062 0 -37.5 C -0.96875 -36.332031 -2.0625 -35.066406 -3.28125 -33.703125 C -4.5 -32.347656 -5.492188 -31.179688 -6.265625 -30.203125 C -7.046875 -29.234375 -7.390625 -28.796875 -7.296875 -28.890625 L -5.6875 -29.46875 L -3.796875 -29.90625 L -0.4375 -31.078125 C 1.507812 -31.765625 3.1875 -32.300781 4.59375 -32.6875 C 6.007812 -33.070312 7.445312 -33.460938 8.90625 -33.859375 L 17.078125 -35.890625 L 20.28125 -36.625 C 21.0625 -36.820312 21.910156 -36.96875 22.828125 -37.0625 C 23.753906 -37.15625 24.414062 -37.15625 24.8125 -37.0625 C 25.582031 -36.863281 25.773438 -36.472656 25.390625 -35.890625 C 25.097656 -35.597656 24.90625 -35.453125 24.8125 -35.453125 L 23.5 -34.875 C 22.8125 -34.582031 22.273438 -34.484375 21.890625 -34.578125 C 21.304688 -34.773438 21.207031 -35.066406 21.59375 -35.453125 C 21.789062 -35.648438 21.789062 -35.769531 21.59375 -35.8125 C 21.394531 -35.863281 20.859375 -35.796875 19.984375 -35.609375 C 19.398438 -35.503906 18.816406 -35.40625 18.234375 -35.3125 C 17.648438 -35.21875 17.210938 -35.117188 16.921875 -35.015625 L 3.5 -31.515625 C 3.113281 -31.421875 2.773438 -31.320312 2.484375 -31.21875 C 2.191406 -31.125 1.992188 -31.078125 1.890625 -31.078125 C 1.703125 -30.890625 1.363281 -30.796875 0.875 -30.796875 C 0.78125 -30.691406 0.609375 -30.613281 0.359375 -30.5625 C 0.117188 -30.519531 -0.046875 -30.453125 -0.140625 -30.359375 C -0.535156 -30.160156 -0.78125 -30.109375 -0.875 -30.203125 C -1.070312 -30.203125 -1.21875 -30.15625 -1.3125 -30.0625 C -1.601562 -29.769531 -1.992188 -29.570312 -2.484375 -29.46875 C -3.847656 -29.082031 -5.257812 -28.546875 -6.71875 -27.859375 C -8.175781 -27.179688 -9 -26.695312 -9.1875 -26.40625 C -9.289062 -26.3125 -9.609375 -26.019531 -10.140625 -25.53125 C -10.671875 -25.050781 -11.226562 -24.421875 -11.8125 -23.640625 C -12.988281 -22.273438 -14.671875 -20.519531 -16.859375 -18.375 C -19.046875 -16.238281 -20.914062 -14.539062 -22.46875 -13.28125 L -29.328125 -7.734375 L -35.453125 -3.0625 L -38.8125 -0.734375 L -40.28125 0.140625 L -42.3125 1.3125 C -43.382812 1.894531 -44.53125 2.40625 -45.75 2.84375 C -46.96875 3.28125 -47.960938 3.546875 -48.734375 3.640625 Z M -2.328125 -43.046875 C -1.847656 -43.046875 -1.097656 -43.238281 -0.078125 -43.625 C 0.941406 -44.019531 1.890625 -44.484375 2.765625 -45.015625 C 3.640625 -45.546875 4.078125 -45.910156 4.078125 -46.109375 C 4.078125 -46.304688 3.785156 -46.378906 3.203125 -46.328125 C 2.617188 -46.273438 2.035156 -46.101562 1.453125 -45.8125 C 0.773438 -45.519531 0.0507812 -45.128906 -0.71875 -44.640625 C -1.5 -44.160156 -2.035156 -43.773438 -2.328125 -43.484375 C -2.617188 -43.191406 -2.617188 -43.046875 -2.328125 -43.046875 Z M -49.03125 2.484375 L -46.984375 1.890625 C -46.015625 1.503906 -45.09375 1.09375 -44.21875 0.65625 C -43.34375 0.21875 -42.320312 -0.390625 -41.15625 -1.171875 C -40.082031 -1.847656 -39.5 -2.1875 -39.40625 -2.1875 C -39.300781 -2.1875 -39.15625 -2.285156 -38.96875 -2.484375 C -38.96875 -2.671875 -38.867188 -2.765625 -38.671875 -2.765625 C -38.566406 -2.765625 -38.078125 -3.054688 -37.203125 -3.640625 C -36.328125 -4.234375 -35.40625 -4.867188 -34.4375 -5.546875 C -33.46875 -6.222656 -32.835938 -6.707031 -32.546875 -7 L -31.375 -7.875 C -30.789062 -8.269531 -30.207031 -8.757812 -29.625 -9.34375 L -25.390625 -13.140625 C -22.179688 -16.054688 -19.429688 -18.628906 -17.140625 -20.859375 C -14.859375 -23.097656 -13.71875 -24.414062 -13.71875 -24.8125 C -13.71875 -24.8125 -13.691406 -24.832031 -13.640625 -24.875 C -13.597656 -24.925781 -13.523438 -24.953125 -13.421875 -24.953125 C -13.421875 -24.953125 -13.394531 -24.972656 -13.34375 -25.015625 C -13.300781 -25.066406 -13.28125 -25.144531 -13.28125 -25.25 C -13.28125 -25.4375 -13.351562 -25.503906 -13.5 -25.453125 C -13.644531 -25.410156 -14.109375 -25.242188 -14.890625 -24.953125 L -16.78125 -24.21875 C -17.070312 -24.125 -17.363281 -24.003906 -17.65625 -23.859375 C -17.945312 -23.710938 -18.09375 -23.59375 -18.09375 -23.5 L -18.671875 -23.34375 C -18.960938 -23.34375 -19.160156 -23.296875 -19.265625 -23.203125 C -19.265625 -23.109375 -19.578125 -22.914062 -20.203125 -22.625 C -20.835938 -22.332031 -21.546875 -21.988281 -22.328125 -21.59375 C -23.203125 -21.207031 -24.050781 -20.769531 -24.875 -20.28125 C -25.707031 -19.789062 -26.269531 -19.453125 -26.5625 -19.265625 L -27.875 -18.53125 C -27.96875 -18.53125 -28.550781 -18.1875 -29.625 -17.5 C -30.695312 -16.820312 -31.835938 -16.09375 -33.046875 -15.3125 C -34.265625 -14.539062 -35.164062 -13.960938 -35.75 -13.578125 C -37.300781 -12.304688 -38.414062 -11.398438 -39.09375 -10.859375 C -39.78125 -10.328125 -40.804688 -9.429688 -42.171875 -8.171875 C -43.628906 -6.710938 -44.796875 -5.398438 -45.671875 -4.234375 C -46.546875 -3.066406 -47.472656 -1.65625 -48.453125 0 C -49.128906 1.550781 -49.320312 2.378906 -49.03125 2.484375 Z M -49.03125 2.484375 "/></g></g></g><g fill="#000000" fill-opacity="1"><g transform="translate(308.32681, 144.458099)"><g><path d="M 52.53125 -80.25 C 53.113281 -79.570312 53.015625 -78.695312 52.234375 -77.625 C 51.941406 -77.144531 51.429688 -76.515625 50.703125 -75.734375 C 49.972656 -74.953125 49.414062 -74.46875 49.03125 -74.28125 L 46.84375 -72.671875 C 46.445312 -72.273438 45.929688 -71.882812 45.296875 -71.5 C 44.671875 -71.113281 44.164062 -70.773438 43.78125 -70.484375 L 41.59375 -69.171875 C 41.007812 -68.773438 40.570312 -68.578125 40.28125 -68.578125 C 39.882812 -68.390625 39.640625 -68.242188 39.546875 -68.140625 C 39.546875 -67.953125 39.300781 -67.757812 38.8125 -67.5625 L 37.9375 -67.265625 C 37.351562 -66.972656 36.351562 -66.460938 34.9375 -65.734375 C 33.53125 -65.003906 32.046875 -64.273438 30.484375 -63.546875 C 28.929688 -62.816406 27.625 -62.207031 26.5625 -61.71875 C 25.78125 -61.332031 25.242188 -61.140625 24.953125 -61.140625 C 24.660156 -61.140625 23.832031 -60.800781 22.46875 -60.125 L 19.984375 -59.09375 C 19.890625 -59 19.550781 -58.851562 18.96875 -58.65625 C 18.382812 -58.46875 17.609375 -58.128906 16.640625 -57.640625 L 11.09375 -55.15625 L 10.359375 -54.71875 L 7.875 -52.234375 C 6.519531 -50.878906 5.035156 -49.394531 3.421875 -47.78125 C 1.816406 -46.175781 0.921875 -45.179688 0.734375 -44.796875 L 0.734375 -44.5 C 0.828125 -44.40625 1.066406 -44.457031 1.453125 -44.65625 C 1.554688 -44.65625 1.609375 -44.675781 1.609375 -44.71875 C 1.609375 -44.769531 1.65625 -44.796875 1.75 -44.796875 C 2.332031 -45.085938 2.988281 -45.378906 3.71875 -45.671875 C 4.445312 -45.960938 5.394531 -46.300781 6.5625 -46.6875 C 8.125 -47.175781 9.050781 -47.226562 9.34375 -46.84375 C 9.4375 -46.644531 9.238281 -46.253906 8.75 -45.671875 C 7.394531 -44.304688 6.570312 -43.332031 6.28125 -42.75 L 6.125 -42.3125 C 5.644531 -41.34375 5.5 -40.859375 5.6875 -40.859375 L 5.984375 -40.859375 L 6.5625 -41 C 7.34375 -41.289062 8.707031 -41.875 10.65625 -42.75 C 12.601562 -43.625 14.0625 -44.257812 15.03125 -44.65625 L 18.671875 -46.25 C 18.960938 -46.25 19.253906 -46.222656 19.546875 -46.171875 C 19.835938 -46.128906 19.644531 -45.863281 18.96875 -45.375 C 18.09375 -45.082031 17.628906 -44.910156 17.578125 -44.859375 C 17.535156 -44.816406 17.488281 -44.769531 17.4375 -44.71875 C 17.382812 -44.675781 16.828125 -44.410156 15.765625 -43.921875 C 15.367188 -43.828125 15.050781 -43.65625 14.8125 -43.40625 C 14.570312 -43.164062 14.351562 -43.046875 14.15625 -43.046875 C 13.175781 -42.660156 12.613281 -42.394531 12.46875 -42.25 C 12.320312 -42.101562 12.007812 -41.929688 11.53125 -41.734375 C 11.238281 -41.640625 10.363281 -41.273438 8.90625 -40.640625 C 7.445312 -40.003906 6.425781 -39.640625 5.84375 -39.546875 L 5.546875 -39.40625 C 5.253906 -39.300781 4.863281 -39.394531 4.375 -39.6875 C 3.789062 -40.175781 3.742188 -41.003906 4.234375 -42.171875 L 4.671875 -43.046875 C 4.867188 -43.535156 5.160156 -44.019531 5.546875 -44.5 C 5.929688 -44.988281 6.175781 -45.234375 6.28125 -45.234375 C 6.375 -45.234375 6.421875 -45.28125 6.421875 -45.375 C 6.421875 -45.476562 6.175781 -45.429688 5.6875 -45.234375 L 4.078125 -44.65625 C 3.304688 -44.457031 2.773438 -44.210938 2.484375 -43.921875 L 1.609375 -43.34375 L 1.453125 -43.34375 L 0.578125 -42.90625 L -1.171875 -41.15625 L -1.453125 -41 L -1.890625 -40.71875 L -2.328125 -40.28125 L -3.0625 -39.6875 L -3.5 -39.40625 C -3.695312 -39.207031 -3.941406 -39.15625 -4.234375 -39.25 C -4.328125 -39.351562 -4.492188 -39.476562 -4.734375 -39.625 C -4.984375 -39.769531 -5.109375 -39.9375 -5.109375 -40.125 C -5.109375 -40.414062 -4.984375 -40.707031 -4.734375 -41 C -4.492188 -41.289062 -4.273438 -41.535156 -4.078125 -41.734375 L -2.765625 -43.1875 L -1.453125 -44.796875 L -0.875 -45.375 L 4.234375 -50.78125 C 5.015625 -51.457031 5.625 -52.039062 6.0625 -52.53125 C 6.5 -53.019531 6.71875 -53.265625 6.71875 -53.265625 C 6.613281 -53.359375 6.390625 -53.351562 6.046875 -53.25 C 5.710938 -53.15625 5.546875 -53.0625 5.546875 -52.96875 C 5.453125 -52.875 5.332031 -52.828125 5.1875 -52.828125 C 5.039062 -52.828125 4.914062 -52.773438 4.8125 -52.671875 L 2.1875 -51.796875 C 1.40625 -51.609375 0.867188 -51.414062 0.578125 -51.21875 L -0.875 -50.484375 C -1.65625 -50.296875 -2.140625 -50.203125 -2.328125 -50.203125 C -2.910156 -50.203125 -3.054688 -50.492188 -2.765625 -51.078125 C -2.578125 -51.265625 -2.191406 -51.457031 -1.609375 -51.65625 L 2.921875 -53.265625 L 4.375 -53.84375 C 4.570312 -54.039062 4.863281 -54.1875 5.25 -54.28125 C 5.832031 -54.570312 6.222656 -54.71875 6.421875 -54.71875 C 6.515625 -54.71875 6.585938 -54.738281 6.640625 -54.78125 C 6.691406 -54.832031 6.71875 -54.859375 6.71875 -54.859375 C 6.71875 -54.859375 7.15625 -55.054688 8.03125 -55.453125 L 9.34375 -55.890625 C 9.53125 -56.085938 9.816406 -56.351562 10.203125 -56.6875 C 10.597656 -57.03125 10.988281 -57.394531 11.375 -57.78125 L 16.34375 -62.15625 L 19.40625 -64.796875 L 24.078125 -68.4375 C 24.171875 -68.53125 24.628906 -68.867188 25.453125 -69.453125 C 26.285156 -70.035156 27.140625 -70.617188 28.015625 -71.203125 L 30.5 -72.8125 L 31.8125 -73.6875 L 33.421875 -74.5625 C 36.816406 -76.507812 40.21875 -77.96875 43.625 -78.9375 L 44.796875 -79.234375 C 45.578125 -79.617188 46.550781 -79.910156 47.71875 -80.109375 L 49.328125 -80.40625 C 50.097656 -80.59375 50.800781 -80.660156 51.4375 -80.609375 C 52.070312 -80.566406 52.4375 -80.445312 52.53125 -80.25 Z M 51.078125 -78.0625 C 51.078125 -78.0625 51.097656 -78.109375 51.140625 -78.203125 C 51.191406 -78.304688 51.21875 -78.40625 51.21875 -78.5 C 51.125 -78.789062 50.929688 -78.988281 50.640625 -79.09375 C 50.441406 -79.1875 49.878906 -79.179688 48.953125 -79.078125 C 48.035156 -78.984375 47.476562 -78.890625 47.28125 -78.796875 L 44.9375 -78.0625 C 43.675781 -77.675781 42.171875 -77.164062 40.421875 -76.53125 C 38.671875 -75.90625 37.113281 -75.25 35.75 -74.5625 C 33.90625 -73.59375 31.957031 -72.453125 29.90625 -71.140625 C 27.863281 -69.828125 26.3125 -68.734375 25.25 -67.859375 L 24.078125 -66.984375 C 23.984375 -66.984375 23.421875 -66.566406 22.390625 -65.734375 C 21.367188 -64.910156 20.203125 -63.9375 18.890625 -62.8125 C 17.578125 -61.695312 16.4375 -60.703125 15.46875 -59.828125 L 13.71875 -58.375 C 13.625 -58.375 13.578125 -58.226562 13.578125 -57.9375 C 13.578125 -57.832031 14.0625 -57.976562 15.03125 -58.375 C 15.519531 -58.5625 15.910156 -58.753906 16.203125 -58.953125 C 16.492188 -59.148438 16.6875 -59.25 16.78125 -59.25 C 16.976562 -59.25 17.460938 -59.441406 18.234375 -59.828125 C 18.628906 -60.023438 18.945312 -60.171875 19.1875 -60.265625 C 19.425781 -60.359375 19.597656 -60.40625 19.703125 -60.40625 C 19.796875 -60.40625 20.328125 -60.601562 21.296875 -61 L 24.515625 -62.3125 L 27.4375 -63.625 L 29.46875 -64.359375 C 29.664062 -64.453125 30.007812 -64.59375 30.5 -64.78125 C 30.988281 -64.976562 31.425781 -65.222656 31.8125 -65.515625 L 34.578125 -66.828125 L 36.1875 -67.703125 L 37.9375 -68.578125 L 42.90625 -71.359375 C 43.875 -71.941406 44.84375 -72.570312 45.8125 -73.25 C 46.789062 -73.9375 47.472656 -74.472656 47.859375 -74.859375 L 49.328125 -76.03125 C 49.421875 -76.03125 49.710938 -76.367188 50.203125 -77.046875 Z M 51.078125 -78.0625 "/></g></g></g><g fill="#000000" fill-opacity="1"><g transform="translate(326.858512, 144.458099)"><g><path d="M -1.453125 -39.84375 C -2.617188 -39.738281 -3.347656 -39.710938 -3.640625 -39.765625 C -3.929688 -39.816406 -4.128906 -40.082031 -4.234375 -40.5625 C -4.429688 -41.050781 -4.234375 -41.78125 -3.640625 -42.75 C -2.867188 -43.914062 -1.753906 -45.082031 -0.296875 -46.25 C 1.160156 -47.425781 2.617188 -48.253906 4.078125 -48.734375 C 6.421875 -49.609375 7.738281 -49.660156 8.03125 -48.890625 C 8.125 -48.492188 7.050781 -47.519531 4.8125 -45.96875 C 3.550781 -45.09375 2.503906 -44.4375 1.671875 -44 C 0.847656 -43.5625 0.046875 -43.242188 -0.734375 -43.046875 C -1.609375 -42.847656 -2.140625 -42.507812 -2.328125 -42.03125 C -2.722656 -41.632812 -2.773438 -41.390625 -2.484375 -41.296875 C -1.609375 -41.003906 2.960938 -42.65625 11.234375 -46.25 L 11.53125 -46.40625 L 11.96875 -46.40625 L 12.109375 -46.25 C 12.492188 -46.0625 12.539062 -45.820312 12.25 -45.53125 L 10.359375 -44.65625 L 3.796875 -41.734375 C 2.523438 -41.054688 1.523438 -40.617188 0.796875 -40.421875 C 0.0664062 -40.222656 -0.679688 -40.03125 -1.453125 -39.84375 Z M -0.296875 -44.65625 C -0.390625 -44.550781 -0.21875 -44.570312 0.21875 -44.71875 C 0.65625 -44.863281 1.265625 -45.132812 2.046875 -45.53125 C 2.722656 -45.914062 3.472656 -46.375 4.296875 -46.90625 C 5.128906 -47.445312 5.59375 -47.765625 5.6875 -47.859375 C 5.6875 -48.054688 5.414062 -48.03125 4.875 -47.78125 C 4.34375 -47.539062 3.835938 -47.320312 3.359375 -47.125 C 2.867188 -47.03125 2.160156 -46.640625 1.234375 -45.953125 C 0.316406 -45.273438 -0.191406 -44.84375 -0.296875 -44.65625 Z M -0.296875 -44.65625 "/></g></g></g><g fill="#000000" fill-opacity="1"><g transform="translate(338.53203, 144.458099)"><g><path d="M -5.546875 -32.828125 C -5.835938 -32.734375 -6.148438 -32.734375 -6.484375 -32.828125 C -6.828125 -32.929688 -7 -33.078125 -7 -33.265625 C -7 -33.265625 -7.046875 -33.363281 -7.140625 -33.5625 C -7.242188 -33.757812 -7.394531 -33.90625 -7.59375 -34 C -7.882812 -34.289062 -8.03125 -34.828125 -8.03125 -35.609375 C -7.925781 -36.671875 -6.90625 -37.738281 -4.96875 -38.8125 L -3.359375 -39.984375 C -3.253906 -39.984375 -3.101562 -40.03125 -2.90625 -40.125 C -2.71875 -40.226562 -2.476562 -40.328125 -2.1875 -40.421875 C -1.40625 -40.804688 -0.96875 -41.050781 -0.875 -41.15625 C -0.875 -41.34375 -0.847656 -41.679688 -0.796875 -42.171875 C -0.753906 -42.660156 -0.734375 -43.242188 -0.734375 -43.921875 C -0.734375 -45.285156 -0.660156 -46.207031 -0.515625 -46.6875 C -0.367188 -47.175781 0.046875 -47.617188 0.734375 -48.015625 C 1.703125 -48.492188 2.332031 -48.585938 2.625 -48.296875 C 3.207031 -47.515625 2.960938 -46.976562 1.890625 -46.6875 C 1.503906 -46.59375 1.285156 -46.445312 1.234375 -46.25 C 1.191406 -46.0625 1.070312 -45.476562 0.875 -44.5 C 0.78125 -43.53125 0.828125 -42.898438 1.015625 -42.609375 C 1.210938 -42.316406 1.554688 -42.269531 2.046875 -42.46875 C 2.628906 -42.851562 3.671875 -43.285156 5.171875 -43.765625 C 6.679688 -44.253906 8.210938 -44.691406 9.765625 -45.078125 C 11.328125 -45.472656 12.398438 -45.71875 12.984375 -45.8125 C 13.765625 -46.101562 14.253906 -46.101562 14.453125 -45.8125 C 14.835938 -45.425781 14.492188 -45.085938 13.421875 -44.796875 C 12.160156 -44.410156 10.820312 -44.019531 9.40625 -43.625 C 8 -43.238281 7.585938 -43.144531 8.171875 -43.34375 C 7.203125 -43.050781 6.273438 -42.757812 5.390625 -42.46875 C 4.515625 -42.175781 3.785156 -41.882812 3.203125 -41.59375 L 1.75 -41 C 1.257812 -40.707031 0.96875 -40.222656 0.875 -39.546875 C 0.675781 -38.671875 0.429688 -38.035156 0.140625 -37.640625 C -0.148438 -36.960938 -0.953125 -36.039062 -2.265625 -34.875 C -3.578125 -33.707031 -4.671875 -33.023438 -5.546875 -32.828125 Z M -5.546875 -34.4375 C -5.160156 -34.4375 -4.476562 -34.921875 -3.5 -35.890625 C -2.71875 -36.671875 -2.207031 -37.253906 -1.96875 -37.640625 C -1.726562 -38.035156 -1.554688 -38.425781 -1.453125 -38.8125 L -1.453125 -39.546875 L -2.484375 -38.96875 L -3.9375 -38.078125 C -4.03125 -37.984375 -4.515625 -37.664062 -5.390625 -37.125 C -6.273438 -36.59375 -6.71875 -36.085938 -6.71875 -35.609375 C -6.71875 -34.828125 -6.328125 -34.4375 -5.546875 -34.4375 Z M -5.546875 -34.4375 "/></g></g></g></g></g></svg>